<?xml version="1.0" standalone="no"?>
<svg xmlns:xlink="http://www.w3.org/1999/xlink" id="wave" style="transform:rotate(180deg); transition: 0.3s" viewBox="0 0 1440 100" version="1.1" xmlns="http://www.w3.org/2000/svg"><defs><linearGradient id="sw-gradient-0" x1="0" x2="0" y1="1" y2="0"><stop stop-color="rgba(240, 240, 240, 1)" offset="0%"/><stop stop-color="rgba(240, 240, 240, 1)" offset="100%"/></linearGradient></defs><path style="transform:translate(0, 0px); opacity:1" fill="url(#sw-gradient-0)" d="M0,10L60,15C120,20,240,30,360,30C480,30,600,20,720,15C840,10,960,10,1080,16.7C1200,23,1320,37,1440,50C1560,63,1680,77,1800,68.3C1920,60,2040,30,2160,20C2280,10,2400,20,2520,26.7C2640,33,2760,37,2880,41.7C3000,47,3120,53,3240,53.3C3360,53,3480,47,3600,40C3720,33,3840,27,3960,20C4080,13,4200,7,4320,5C4440,3,4560,7,4680,15C4800,23,4920,37,5040,41.7C5160,47,5280,43,5400,41.7C5520,40,5640,40,5760,43.3C5880,47,6000,53,6120,55C6240,57,6360,53,6480,50C6600,47,6720,43,6840,40C6960,37,7080,33,7200,28.3C7320,23,7440,17,7560,20C7680,23,7800,37,7920,38.3C8040,40,8160,30,8280,33.3C8400,37,8520,53,8580,61.7L8640,70L8640,100L8580,100C8520,100,8400,100,8280,100C8160,100,8040,100,7920,100C7800,100,7680,100,7560,100C7440,100,7320,100,7200,100C7080,100,6960,100,6840,100C6720,100,6600,100,6480,100C6360,100,6240,100,6120,100C6000,100,5880,100,5760,100C5640,100,5520,100,5400,100C5280,100,5160,100,5040,100C4920,100,4800,100,4680,100C4560,100,4440,100,4320,100C4200,100,4080,100,3960,100C3840,100,3720,100,3600,100C3480,100,3360,100,3240,100C3120,100,3000,100,2880,100C2760,100,2640,100,2520,100C2400,100,2280,100,2160,100C2040,100,1920,100,1800,100C1680,100,1560,100,1440,100C1320,100,1200,100,1080,100C960,100,840,100,720,100C600,100,480,100,360,100C240,100,120,100,60,100L0,100Z"/></svg>